<svg width="16" height="16" viewBox="0 0 16 16" fill="none" xmlns="http://www.w3.org/2000/svg">
<path d="M5.99967 1.33337C4.25301 1.33337 2.83301 2.75337 2.83301 4.50004C2.83301 6.21337 4.17301 7.60004 5.91967 7.66004C5.97301 7.65337 6.02634 7.65337 6.06634 7.66004C6.07968 7.66004 6.08634 7.66004 6.09967 7.66004C6.10634 7.66004 6.10634 7.66004 6.11301 7.66004C7.81967 7.60004 9.15968 6.21337 9.16634 4.50004C9.16634 2.75337 7.74634 1.33337 5.99967 1.33337Z" fill="white"/>
<path d="M9.38664 9.4333C7.52664 8.1933 4.49331 8.1933 2.61997 9.4333C1.77331 9.99996 1.30664 10.7666 1.30664 11.5866C1.30664 12.4066 1.77331 13.1666 2.61331 13.7266C3.54664 14.3533 4.77331 14.6666 5.99997 14.6666C7.22664 14.6666 8.45331 14.3533 9.38664 13.7266C10.2266 13.16 10.6933 12.4 10.6933 11.5733C10.6866 10.7533 10.2266 9.9933 9.38664 9.4333Z" fill="white"/>
<path d="M13.3263 4.89332C13.4329 6.18665 12.5129 7.31999 11.2396 7.47332C11.2329 7.47332 11.2329 7.47332 11.2263 7.47332H11.2062C11.1662 7.47332 11.1262 7.47332 11.0929 7.48665C10.4462 7.51998 9.85292 7.31332 9.40625 6.93332C10.0929 6.31998 10.4863 5.39999 10.4062 4.39999C10.3596 3.85998 10.1729 3.36665 9.89292 2.94665C10.1463 2.81999 10.4396 2.73999 10.7396 2.71332C12.0463 2.59999 13.2129 3.57332 13.3263 4.89332Z" fill="white"/>
<path d="M14.6605 11.0601C14.6071 11.7067 14.1938 12.2667 13.5005 12.6467C12.8338 13.0134 11.9938 13.1867 11.1605 13.1667C11.6405 12.7334 11.9205 12.1934 11.9738 11.6201C12.0405 10.7934 11.6471 10.0001 10.8605 9.36673C10.4138 9.01339 9.89382 8.73339 9.32715 8.52673C10.8005 8.10006 12.6538 8.38673 13.7938 9.30673C14.4071 9.80006 14.7205 10.4201 14.6605 11.0601Z" fill="white"/>
</svg>
