<svg width="313" height="79" viewBox="0 0 313 79" fill="none" xmlns="http://www.w3.org/2000/svg">
<g clip-path="url(#clip0_1378_719)">
<path d="M94.67 46.28H102.78C103.23 51.26 106.55 54.45 111.91 54.45C116.7 54.45 120.02 52.54 120.02 48.58C120.02 39.01 96.02 45.64 96.02 28.54C96.02 21.2 102.34 16.09 111.4 16.09C120.46 16.09 127.23 21.52 127.61 29.88H119.57C119.19 25.99 116.12 23.37 111.4 23.37C107 23.37 104.25 25.41 104.25 28.54C104.25 38.43 128.57 31.03 128.57 48.46C128.57 56.76 121.74 61.8 111.91 61.8C102.08 61.8 95.12 55.67 94.68 46.29L94.67 46.28Z" fill="white"/>
<path d="M160.48 40.6V61.28H152.76V56.49C151.42 59.68 147.72 61.79 143.12 61.79C136.74 61.79 132.4 57.71 132.4 52.15C132.4 45.9 137.25 42 144.46 42H150.4C152 42 152.76 41.11 152.76 39.83C152.76 36.7 150.33 34.47 146.19 34.47C142.05 34.47 139.55 37.09 139.42 39.96H132.4C132.78 33.58 138.21 28.6 146.57 28.6C154.93 28.6 160.48 33.32 160.48 40.6ZM152.76 47.68V47.17H145.55C142.23 47.17 140 49.02 140 51.83C140 54.32 142.04 55.98 144.98 55.98C149.89 55.98 152.77 52.53 152.77 47.68H152.76Z" fill="white"/>
<path d="M166.45 29.11H174.3V34.15C175.9 30.9 179.09 28.6 183.62 28.6C188.73 28.6 192.24 30.77 193.64 34.73C195.11 31.41 199.19 28.6 204.3 28.6C211.26 28.6 215.72 33.64 215.72 40.47V61.28H207.93V42.83C207.93 38.3 205.57 35.3 201.8 35.3C197.59 35.3 194.97 38.3 194.97 42.83V61.28H187.18V42.83C187.18 38.3 184.82 35.3 181.05 35.3C176.9 35.3 174.28 38.3 174.28 42.83V61.28H166.43V29.11H166.45Z" fill="white"/>
<path d="M222.03 29.11H229.88V34.15C231.48 30.9 234.67 28.6 239.2 28.6C244.31 28.6 247.82 30.77 249.22 34.73C250.69 31.41 254.77 28.6 259.88 28.6C266.84 28.6 271.3 33.64 271.3 40.47V61.28H263.51V42.83C263.51 38.3 261.15 35.3 257.38 35.3C253.17 35.3 250.55 38.3 250.55 42.83V61.28H242.76V42.83C242.76 38.3 240.4 35.3 236.63 35.3C232.48 35.3 229.86 38.3 229.86 42.83V61.28H222.01V29.11H222.03Z" fill="white"/>
<path d="M292.61 59.75L287.63 74.3H280.16L284.69 61.28L272.95 29.11H280.93L288.4 51.19L295.8 29.11H303.84L292.61 59.75V59.75Z" fill="white"/>
<path d="M312.58 52.98V61.28H304.09V52.98H312.58V52.98Z" fill="white"/>
<path d="M39.05 0C17.48 0 0 17.48 0 39.05C0 60.62 17.48 78.1 39.05 78.1C60.62 78.1 78.1 60.62 78.1 39.05C78.1 17.48 60.61 0 39.05 0ZM55.39 52.91C54.14 54.79 52.26 56.24 49.76 57.29C48.12 57.97 46.13 58.48 43.78 58.74C43.17 58.81 42.65 59.14 42.28 59.63C41.54 60.6 40.37 61.23 39.05 61.23C37.73 61.23 36.47 60.56 35.73 59.53C35.38 59.04 34.87 58.7 34.27 58.61C32.61 58.38 31.1 58.02 29.75 57.5C27.04 56.46 24.96 55 23.5 52.92C22.04 50.84 21.42 48.33 21.42 45.42V45H30.17V46.04C30.17 47.29 30.38 48.12 31 48.96C31.62 49.79 32.46 50.21 33.92 50.63C35.38 51.05 37.25 51.26 39.96 51.26C42.25 51.26 44.13 51.05 45.38 50.84C46.63 50.63 47.46 50.21 47.88 49.59C48.3 48.97 48.5 48.34 48.5 47.51C48.5 46.26 48.08 45.43 47.25 44.8C46.42 44.18 45.17 43.76 43.08 43.55L32.03 41.88C29.74 41.46 27.65 40.84 25.99 40C24.32 39.17 23.07 37.92 22.24 36.46C21.41 35 20.99 33.13 20.99 31.04C20.99 29.58 21.2 28.12 21.82 26.66C22.44 25.2 23.49 23.95 24.95 22.91C26.41 21.66 28.08 20.83 30.37 20.2C31.55 19.88 32.84 19.61 34.27 19.43C34.88 19.35 35.41 19.01 35.78 18.51C36.52 17.52 37.7 16.88 39.04 16.88C40.38 16.88 41.6 17.55 42.34 18.57C42.71 19.08 43.24 19.45 43.86 19.55C45.62 19.84 47.17 20.27 48.49 20.82C50.99 21.86 53.07 23.53 54.33 25.61C55.59 27.69 56.21 29.99 56.21 32.7V33.12H47.67V32.29C47.67 31.04 47.46 30 46.84 29.37C46.42 28.54 45.38 28.12 43.92 27.7C42.46 27.28 40.59 27.07 37.88 27.07C35.8 27.07 34.13 27.28 32.88 27.49C31.63 27.7 30.8 28.12 30.38 28.74C29.96 29.36 29.55 29.99 29.55 30.82C29.55 31.65 29.76 32.07 29.97 32.7C30.18 33.12 30.8 33.53 31.43 33.74C32.05 33.95 32.89 34.16 34.14 34.37L45.19 36.04C48.11 36.46 50.4 37.29 52.07 38.33C53.74 39.37 54.99 40.62 55.82 42.08C56.65 43.54 57.07 45.21 57.07 46.87C57.28 48.95 56.65 51.04 55.4 52.91H55.39Z" fill="white"/>
</g>
<defs>
<clipPath id="clip0_1378_719">
<rect width="312.58" height="78.1" fill="white"/>
</clipPath>
</defs>
</svg>
