<svg width="16" height="16" viewBox="0 0 16 16" fill="none" xmlns="http://www.w3.org/2000/svg">
<path d="M7.50027 5.38667V7.29334L6.82694 7.06001C6.48694 6.94001 6.28027 6.82667 6.28027 6.24667C6.28027 5.77334 6.63361 5.38667 7.06694 5.38667H7.50027V5.38667Z" fill="white"/>
<path d="M9.72 9.75333C9.72 10.2267 9.36667 10.6133 8.93333 10.6133H8.5V8.70667L9.17333 8.94C9.51333 9.06 9.72 9.17333 9.72 9.75333Z" fill="white"/>
<path d="M10.793 1.33334H5.20634C2.77967 1.33334 1.33301 2.78001 1.33301 5.20668V10.7933C1.33301 13.22 2.77967 14.6667 5.20634 14.6667H10.793C13.2197 14.6667 14.6663 13.22 14.6663 10.7933V5.20668C14.6663 2.78001 13.2197 1.33334 10.793 1.33334ZM9.50634 8.00001C10.0263 8.18001 10.7197 8.56001 10.7197 9.75334C10.7197 10.78 9.91967 11.6133 8.93301 11.6133H8.49967V12C8.49967 12.2733 8.27301 12.5 7.99967 12.5C7.72634 12.5 7.49967 12.2733 7.49967 12V11.6133H7.25967C6.16634 11.6133 5.27967 10.6867 5.27967 9.55334C5.27967 9.28001 5.49967 9.05334 5.77967 9.05334C6.05301 9.05334 6.27967 9.28001 6.27967 9.55334C6.27967 10.14 6.71967 10.6133 7.25967 10.6133H7.49967V8.35334L6.49301 8.00001C5.97301 7.82001 5.27967 7.44001 5.27967 6.24668C5.27967 5.22001 6.07967 4.38668 7.06634 4.38668H7.49967V4.00001C7.49967 3.72668 7.72634 3.50001 7.99967 3.50001C8.27301 3.50001 8.49967 3.72668 8.49967 4.00001V4.38668H8.73967C9.83301 4.38668 10.7197 5.31334 10.7197 6.44668C10.7197 6.72001 10.4997 6.94668 10.2197 6.94668C9.94634 6.94668 9.71967 6.72001 9.71967 6.44668C9.71967 5.86001 9.27967 5.38668 8.73967 5.38668H8.49967V7.64668L9.50634 8.00001Z" fill="white"/>
</svg>
