<svg width="16" height="16" viewBox="0 0 16 16" fill="none" xmlns="http://www.w3.org/2000/svg">
<path d="M11.7063 1.33337H4.27301C2.65301 1.33337 1.33301 2.65337 1.33301 4.27337V8.60671V8.74004C1.33301 10.3667 2.65301 11.68 4.27301 11.68H6.83301C7.19967 11.68 7.49967 11.98 7.49967 12.3467V12.9934C7.49967 13.36 7.19967 13.66 6.83301 13.66H5.21967C4.94634 13.66 4.71967 13.8867 4.71967 14.16C4.71967 14.4334 4.93967 14.6667 5.21967 14.6667H10.7863C11.0597 14.6667 11.2863 14.44 11.2863 14.1667C11.2863 13.8934 11.0597 13.6667 10.7863 13.6667H9.17301C8.80634 13.6667 8.50634 13.3667 8.50634 13V12.3534C8.50634 11.9867 8.80634 11.6867 9.17301 11.6867H11.713C13.3397 11.6867 14.653 10.3667 14.653 8.74671V8.61337V4.28004C14.6463 2.65337 13.3263 1.33337 11.7063 1.33337Z" fill="white"/>
</svg>
