<svg width="16" height="16" viewBox="0 0 16 16" fill="none" xmlns="http://www.w3.org/2000/svg">
<path d="M14.6663 11V13C14.6663 13.92 13.9196 14.6667 12.9996 14.6667H8.23962C7.64629 14.6667 7.35296 13.9534 7.76629 13.5334L11.6796 9.53337C11.8063 9.40671 11.9796 9.33337 12.153 9.33337H12.9996C13.9196 9.33337 14.6663 10.08 14.6663 11Z" fill="white"/>
<path d="M12.2468 7.52664L10.4402 9.3333L8.80016 10.9666C8.38016 11.3866 7.66016 11.0933 7.66016 10.5C7.66016 8.35997 7.66016 4.83997 7.66016 4.83997C7.66016 4.65997 7.73349 4.49331 7.85349 4.36664L8.46682 3.75331C9.12016 3.09997 10.1735 3.09997 10.8268 3.75331L12.2402 5.16664C12.9002 5.81997 12.9002 6.87331 12.2468 7.52664Z" fill="white"/>
<path d="M4.99967 1.33337H2.99967C1.99967 1.33337 1.33301 2.00004 1.33301 3.00004V12C1.33301 12.18 1.35301 12.36 1.38634 12.5334C1.40634 12.62 1.42634 12.7067 1.45301 12.7934C1.48634 12.8934 1.51967 12.9934 1.55967 13.0867C1.56634 13.0934 1.56634 13.1 1.56634 13.1C1.57301 13.1 1.57301 13.1 1.56634 13.1067C1.65967 13.2934 1.76634 13.4734 1.89301 13.64C1.96634 13.7267 2.03967 13.8067 2.11301 13.8867C2.18634 13.9667 2.26634 14.0334 2.35301 14.1L2.35967 14.1067C2.52634 14.2334 2.70634 14.34 2.89301 14.4334C2.89967 14.4267 2.89967 14.4267 2.89967 14.4334C2.99967 14.48 3.09967 14.5134 3.20634 14.5467C3.29301 14.5734 3.37967 14.5934 3.46634 14.6134C3.63967 14.6467 3.81967 14.6667 3.99967 14.6667C4.27301 14.6667 4.55301 14.6267 4.81301 14.54C4.88634 14.5134 4.95967 14.4867 5.03301 14.4534C5.26634 14.36 5.49301 14.2267 5.69301 14.0534C5.75301 14.0067 5.81967 13.9467 5.87967 13.8867L5.90634 13.86C6.37301 13.38 6.66634 12.72 6.66634 12V3.00004C6.66634 2.00004 5.99967 1.33337 4.99967 1.33337ZM3.99967 13C3.44634 13 2.99967 12.5534 2.99967 12C2.99967 11.4467 3.44634 11 3.99967 11C4.55301 11 4.99967 11.4467 4.99967 12C4.99967 12.5534 4.55301 13 3.99967 13Z" fill="white"/>
</svg>
