<svg width="74" height="74" viewBox="0 0 74 74" fill="none" xmlns="http://www.w3.org/2000/svg">
<path d="M37 64.75C52.3259 64.75 64.75 52.3259 64.75 37C64.75 21.6741 52.3259 9.25 37 9.25C21.6741 9.25 9.25 21.6741 9.25 37C9.25 52.3259 21.6741 64.75 37 64.75Z" stroke="white" stroke-width="6" stroke-linecap="square" stroke-linejoin="round"/>
<path d="M37 55.5C38.9157 55.5 40.4688 53.947 40.4688 52.0312C40.4688 50.1155 38.9157 48.5625 37 48.5625C35.0843 48.5625 33.5312 50.1155 33.5312 52.0312C33.5312 53.947 35.0843 55.5 37 55.5Z" fill="white"/>
<path d="M37 41.625V39.3125C38.6008 39.3125 40.1656 38.8378 41.4966 37.9485C42.8277 37.0591 43.8651 35.795 44.4776 34.3161C45.0902 32.8372 45.2505 31.2098 44.9382 29.6397C44.6259 28.0697 43.8551 26.6275 42.7231 25.4956C41.5912 24.3637 40.149 23.5928 38.579 23.2805C37.009 22.9682 35.3816 23.1285 33.9027 23.7411C32.4237 24.3537 31.1596 25.3911 30.2703 26.7221C29.3809 28.0531 28.9062 29.618 28.9062 31.2188" stroke="white" stroke-width="6" stroke-linecap="square" stroke-linejoin="round"/>
</svg>
