<svg width="140" height="140" viewBox="0 0 140 140" fill="none" xmlns="http://www.w3.org/2000/svg">
<g clip-path="url(#clip0_1377_719)">
<path d="M69.9956 0C31.339 0 0 31.339 0 69.9956C0 108.652 31.339 139.991 69.9956 139.991C108.652 139.991 139.991 108.652 139.991 69.9956C140 31.339 108.661 0 69.9956 0ZM99.2839 94.8407C97.0404 98.206 93.6839 100.818 89.1969 102.684C86.261 103.911 82.6854 104.805 78.4701 105.287C77.3834 105.41 76.4457 106.014 75.7797 106.882C74.4476 108.626 72.3531 109.748 69.9869 109.748C67.6207 109.748 65.3684 108.547 64.0363 106.698C63.4053 105.822 62.4939 105.208 61.4247 105.059C58.4451 104.638 55.7459 103.99 53.3271 103.061C48.472 101.194 44.7387 98.574 42.1183 94.8407C39.5067 91.1074 38.385 86.6203 38.385 81.3884V80.6435H54.072V82.5102C54.072 84.7537 54.4488 86.2435 55.5706 87.7421C56.6923 89.2407 58.1822 89.9856 60.8025 90.7305C63.4141 91.4754 66.7793 91.8523 71.6344 91.8523C75.7446 91.8523 79.1099 91.4754 81.3446 91.1074C83.5881 90.7305 85.0779 89.9856 85.8316 88.8639C86.5765 87.7421 86.9534 86.6203 86.9534 85.1305C86.9534 82.887 86.2085 81.3972 84.7099 80.2754C83.2113 79.1537 80.9765 78.4088 77.2344 78.0319L57.4372 75.0435C53.3271 74.2986 49.5937 73.1768 46.6053 71.6783C43.6169 70.1797 41.3734 67.9449 39.8836 65.3246C38.385 62.713 37.6401 59.3477 37.6401 55.6144C37.6401 53.0028 38.0169 50.3825 39.1387 47.7709C40.2604 45.1593 42.1271 42.9158 44.7387 41.0491C47.3502 38.8056 50.3387 37.3158 54.4488 36.1941C56.5696 35.6156 58.8833 35.1424 61.451 34.8094C62.5465 34.6692 63.493 34.0469 64.159 33.1706C65.4911 31.4003 67.6031 30.2523 69.9956 30.2523C72.3881 30.2523 74.5878 31.4441 75.9199 33.2757C76.5859 34.1959 77.5324 34.8532 78.6541 35.0372C81.8003 35.5543 84.5872 36.3255 86.9621 37.3158C91.4491 39.1825 95.1825 42.1709 97.426 45.913C99.6695 49.6463 100.791 53.7565 100.791 58.6116V59.3565H85.4723V57.8579C85.4723 55.6144 85.0955 53.7477 83.9737 52.626C83.2288 51.1274 81.3621 50.3825 78.7418 49.6376C76.1214 48.8926 72.7649 48.5158 67.9099 48.5158C64.1765 48.5158 61.1881 48.8926 58.9446 49.2607C56.7011 49.6376 55.2113 50.3825 54.4576 51.5042C53.7127 52.626 52.959 53.7477 52.959 55.2376C52.959 56.7274 53.3358 57.4811 53.7039 58.6028C54.0808 59.3477 55.2025 60.1014 56.3155 60.4695C57.4372 60.8463 58.9271 61.2144 61.1706 61.5912L80.9678 64.5797C86.1997 65.3246 90.3099 66.8232 93.2983 68.6898C96.2867 70.5565 98.5302 72.8 100.02 75.4116C101.519 78.0232 102.264 81.0116 102.264 84C102.64 87.7333 101.519 91.4754 99.2751 94.8319L99.2839 94.8407Z" fill="white"/>
</g>
<defs>
<clipPath id="clip0_1377_719">
<rect width="140" height="140" fill="white"/>
</clipPath>
</defs>
</svg>
