<svg width="74" height="74" viewBox="0 0 74 74" fill="none" xmlns="http://www.w3.org/2000/svg">
<g clip-path="url(#clip0_2889_3717)">
<path d="M62.4375 23.125H11.5625C10.2853 23.125 9.25 24.1603 9.25 25.4375V34.6875C9.25 35.9647 10.2853 37 11.5625 37H62.4375C63.7147 37 64.75 35.9647 64.75 34.6875V25.4375C64.75 24.1603 63.7147 23.125 62.4375 23.125Z" stroke="white" stroke-width="6" stroke-linecap="round" stroke-linejoin="round"/>
<path d="M60.125 37V57.8125C60.125 58.4258 59.8814 59.014 59.4477 59.4477C59.014 59.8814 58.4258 60.125 57.8125 60.125H16.1875C15.5742 60.125 14.986 59.8814 14.5523 59.4477C14.1186 59.014 13.875 58.4258 13.875 57.8125V37" stroke="white" stroke-width="6" stroke-linecap="round" stroke-linejoin="round"/>
<path d="M37 23.125V60.125" stroke="white" stroke-width="6" stroke-linecap="round" stroke-linejoin="round"/>
<path d="M50.0945 19.8587C46.7992 23.1251 37 23.1251 37 23.1251C37 23.1251 37 13.3259 40.2664 10.0306C41.5697 8.7273 43.3373 7.99512 45.1805 7.99512C47.0236 7.99512 48.7912 8.7273 50.0945 10.0306C51.3978 11.3339 52.13 13.1015 52.13 14.9447C52.13 16.7878 51.3978 18.5554 50.0945 19.8587Z" stroke="white" stroke-width="6" stroke-linecap="round" stroke-linejoin="round"/>
<path d="M23.9056 19.8587C27.2009 23.1251 37.0001 23.1251 37.0001 23.1251C37.0001 23.1251 37.0001 13.3259 33.7337 10.0306C32.4304 8.7273 30.6628 7.99512 28.8196 7.99512C26.9765 7.99512 25.2089 8.7273 23.9056 10.0306C22.6023 11.3339 21.8701 13.1015 21.8701 14.9447C21.8701 16.7878 22.6023 18.5554 23.9056 19.8587Z" stroke="white" stroke-width="6" stroke-linecap="round" stroke-linejoin="round"/>
</g>
<defs>
<clipPath id="clip0_2889_3717">
<rect width="74" height="74" fill="white"/>
</clipPath>
</defs>
</svg>
